<svg width="192" height="33" viewBox="0 0 192 33" fill="none" xmlns="http://www.w3.org/2000/svg">
<path d="M0 22.6502V7.43427C0 5.14146 0.626314 3.335 1.87894 2.0149C3.13157 0.694792 4.87133 0 7.16782 0C9.39472 0 11.1345 0.694791 12.3175 2.15385C13.431 3.54344 14.0573 5.34989 14.0573 7.57323V10.4219H9.39471V7.22583C9.39471 5.21094 8.62922 4.16875 7.02864 4.16875C5.42806 4.16875 4.66256 5.21094 4.66256 7.22583V23.6229C4.66256 25.7073 5.42806 26.68 7.02864 26.68C8.62922 26.68 9.39471 25.6378 9.39471 23.6229V19.5931H14.0573V22.6502C14.0573 25.082 13.5006 27.0274 12.3871 28.417C11.2041 29.9455 9.39472 30.7098 7.02864 30.7098C2.36608 30.8487 0 28.0696 0 22.6502Z" fill="black"/>
<path d="M17.3977 7.43427C17.3977 5.14146 18.024 3.335 19.2071 2.0149C20.5293 0.694792 22.3386 0 24.5655 0C26.7924 0 28.5322 0.694792 29.7152 2.15385C30.8287 3.54344 31.455 5.34989 31.455 7.57323V22.7197C31.455 25.1515 30.8983 27.0969 29.7848 28.4865C28.5322 30.015 26.7924 30.7793 24.3568 30.7793C19.6942 30.7793 17.3281 28.0696 17.3281 22.5807C17.3977 22.6502 17.3977 7.43427 17.3977 7.43427ZM26.7924 23.6229V7.22583C26.7924 5.21094 26.0269 4.16875 24.4264 4.16875C22.8258 4.16875 22.0603 5.21094 22.0603 7.22583V23.6229C22.0603 25.7073 22.8258 26.68 24.4264 26.68C26.0269 26.68 26.7924 25.7073 26.7924 23.6229Z" fill="black"/>
<path d="M35.5605 30.2235V0.555908H41.5453L44.5377 16.953C44.7465 18.2731 44.8857 19.8016 44.8857 21.3997C44.8857 20.149 45.0248 18.69 45.3728 17.0225L48.226 0.555908H54.4196V30.154H50.105V11.5336C50.105 10.4219 50.2441 8.75445 50.4529 6.39216C50.4529 6.46164 50.3833 6.94799 50.1745 8.05966C50.0354 8.89341 49.8962 9.72716 49.6874 10.6304L45.9991 30.293H43.8418L40.2927 10.6304C40.1535 9.65768 39.8752 8.26809 39.5272 6.46164C39.736 8.61549 39.8752 10.3525 39.8752 11.6031V30.293H35.5605V30.2235Z" fill="black"/>
<path d="M58.595 7.43427C58.595 5.14146 59.2213 3.335 60.4739 2.0149C61.7266 0.694792 63.5359 0 65.7628 0C67.9897 0 69.7295 0.694792 70.9125 2.15385C72.0955 3.54344 72.6523 5.34989 72.6523 7.57323V22.7197C72.6523 25.1515 72.0955 27.0969 70.9821 28.4865C69.7295 30.015 67.9897 30.7793 65.554 30.7793C60.8915 30.7793 58.5254 28.0696 58.5254 22.5807V7.43427H58.595ZM67.9897 23.6229V7.22583C67.9897 5.21094 67.2242 4.16875 65.6236 4.16875C64.023 4.16875 63.2575 5.21094 63.2575 7.22583V23.6229C63.2575 25.7073 64.023 26.68 65.6236 26.68C67.2242 26.68 67.9897 25.7073 67.9897 23.6229Z" fill="black"/>
<path d="M97.566 26.7495C97.8443 27.3748 98.4011 27.6527 99.2362 27.6527H99.4449V32.1688H98.9578C96.8701 32.1688 95.4087 31.3351 94.5736 29.7371C93.4601 30.4319 92.2075 30.7793 90.8157 30.7793C88.5192 30.7793 86.7795 29.9455 85.5964 28.3475C84.6222 26.9579 84.0654 25.0125 84.0654 22.5807V7.43427C84.0654 5.14146 84.6917 3.335 85.9444 2.0149C87.197 0.625313 89.0063 0 91.3028 0C93.5297 0 95.2695 0.694792 96.4525 2.15385C97.566 3.47396 98.1923 5.3499 98.1923 7.57323V22.7197C98.1923 24.4567 97.9835 25.7768 97.566 26.7495ZM93.5297 23.6229V7.22583C93.5297 5.21094 92.7642 4.16875 91.1637 4.16875C89.5631 4.16875 88.7976 5.21094 88.7976 7.22583V23.6229C88.7976 25.7073 89.5631 26.68 91.1637 26.68C92.7642 26.68 93.5297 25.7073 93.5297 23.6229Z" fill="black"/>
<path d="M102.646 0.555908H107.308V23.484C107.308 25.36 108.074 26.3327 109.744 26.3327C111.275 26.3327 112.04 25.36 112.04 23.484V0.555908H116.703V22.7198C116.703 25.1515 116.146 27.0969 115.102 28.4865C113.919 30.0151 112.11 30.7793 109.744 30.7793C105.012 30.7793 102.715 28.0002 102.715 22.5808L102.646 0.555908Z" fill="black"/>
<path d="M125.749 0.555908H121.087V30.154H125.749V0.555908Z" fill="black"/>
<path d="M130.273 30.2235V0.555908H142.173V4.86362H134.866V12.6453H140.155V16.953H134.866V25.7768H142.173V30.2235H130.273Z" fill="black"/>
<path d="M150.316 17.7173V30.154H145.723V0.555908H152.403C155.048 0.555908 156.996 1.32018 158.11 2.9182C159.084 4.2383 159.571 6.32268 159.571 9.10184C159.571 12.6453 158.597 15.0771 156.648 16.3972L159.989 30.154H155.257L152.473 17.7173C152.543 17.7173 150.316 17.7173 150.316 17.7173ZM150.316 4.86362V13.479H152.125C153.308 13.479 154.143 12.9927 154.561 12.0894C154.839 11.5336 154.909 10.4914 154.909 9.03237C154.909 7.64278 154.769 6.67007 154.421 6.11424C154.004 5.28049 153.169 4.93309 151.916 4.93309C151.986 4.86362 150.316 4.86362 150.316 4.86362Z" fill="black"/>
<path d="M163.259 30.2235V0.555908H175.089V4.86362H167.852V12.6453H173.071V16.953H167.852V25.7768H175.089V30.2235H163.259Z" fill="black"/>
<path d="M177.316 22.6502L181.701 21.9554C181.84 24.8735 182.884 26.3326 184.693 26.3326C185.528 26.3326 186.224 26.0547 186.711 25.4988C187.198 24.943 187.477 24.3177 187.477 23.4145C187.477 21.8859 186.224 19.871 183.788 17.4393L183.371 17.0224C181.492 15.1465 180.239 13.6874 179.543 12.7147C178.36 10.9777 177.734 9.17125 177.734 7.36479C177.734 5.34989 178.43 3.61292 179.752 2.15385C181.074 0.694791 182.814 0 184.832 0C186.92 0 188.52 0.694791 189.773 2.15385C190.887 3.47396 191.513 5.21094 191.722 7.29531L187.268 7.92062C187.129 5.48885 186.294 4.30771 184.763 4.30771C183.162 4.30771 182.327 5.21094 182.327 7.01739C182.327 8.68489 183.788 10.9777 186.642 13.6874C186.711 13.7569 186.781 13.8264 186.92 13.9653C188.66 15.7023 189.912 17.0224 190.539 18.1341C191.513 19.7321 192 21.4691 192 23.345C192 25.4294 191.304 27.2358 190.051 28.6254C188.729 30.015 187.059 30.7098 184.902 30.7098C182.536 30.7098 180.657 29.9455 179.335 28.3475C178.082 27.0274 177.386 25.082 177.316 22.6502Z" fill="black"/>
</svg>
